<svg data-v-0dd9719b="" version="1.0" xmlns="http://www.w3.org/2000/svg" xmlns:xlink="http://www.w3.org/1999/xlink" width="100%" height="100%" viewBox="0 0 340.000000 250.000000" preserveAspectRatio="xMidYMid meet" color-interpolation-filters="sRGB" style="margin: auto;"> <rect data-v-0dd9719b="" x="0" y="0" width="100%" height="100%" fill="#fff" fill-opacity="1" class="background"></rect> <rect data-v-0dd9719b="" x="0" y="0" width="100%" height="100%" fill="url(#watermark)" fill-opacity="1" class="watermarklayer"></rect> <g data-v-0dd9719b="" fill="#0ca" class="icon-text-wrapper icon-svg-group iconsvg" transform="translate(65.5999984741211,94.39874839782715)"><g class="iconsvg-imagesvg" transform="translate(0,3.8685245513916016)"><g><rect fill="#0ca" fill-opacity="0" stroke-width="2" x="0" y="0" width="60" height="53.46545240683645" class="image-rect"></rect> <svg x="0" y="0" width="60" height="53.46545240683645" filtersec="colorsb3201643131" class="image-svg-svg primary" style="overflow: visible;"><svg xmlns="http://www.w3.org/2000/svg" viewBox="-0.001566423219628632 -0.0022743940353393555 129.94528198242188 115.7933120727539"><title>资源 39</title><g><path d="M129.81 14.06c0-5.6-.46-10.66-6.36-13.18-6.06-2.6-9.93 1-13.78 4.91-13.36 13.45-26.93 26.69-40.08 40.33C66 49.9 64 50 60.31 46.17 47 32.29 33.18 18.82 19.58 5.17 15.92 1.49 12.08-1.52 6.46.86S.07 7.72.09 13.09C.2 44.16.34 75.24 0 106.31c-.08 7.63 2.9 9.57 9.93 9.44 18.33-.33 36.67-.11 55-.11 18 0 36.06-.29 54.07.14 7.79.18 11.07-1.78 10.94-10.37-.47-30.41-.24-60.9-.13-91.35zm-92.33 85.7c4.9-4.87 8.83-9.5 13.48-13.22 4.81-3.84 2.93-6.2-.62-9.18-3.34-2.8-5.46-7.74-10.78-1.64-7.07 8.11-15.16 15.35-23.62 23.77v-75.3c25.42 25.36 50.27 50.13 75.78 75.57zm76.33-.54c-12-11.89-23.37-23.49-35.11-34.73-3.93-3.76-.62-5.25 1.38-7.25 11-11 22-21.84 33.73-33.49z" fill="#0ca"></path></g></svg></svg> <!----></g></g> <g transform="translate(67,0)"><g data-gra="path-name" fill-rule="" class="tp-name iconsvg-namesvg" transform="translate(0,0)"><g transform="scale(1)"><g><path d="M14.65-31L14.65-32.65 4.15-32.65 4.15-37.05 14.65-37.05 14.65-39.85 20.3-39.6 20.3-37.05 28.85-37.05 28.85-39.85 34.5-39.6 34.5-37.05 45.1-37.05 45.1-32.65 34.5-32.65 34.5-31 28.85-31 28.85-32.65 20.3-32.65 20.3-31 14.65-31ZM44.75-21.35L39.05-21.35 39.05-25.8 10.2-25.8 10.2-21.4 4.5-21.4 4.5-29.9 44.75-29.9 44.75-21.35ZM36.8-20.65L12.45-20.65 12.45-24.4 36.8-24.4 36.8-20.65ZM35.3-8.75L35.3-8.75Q36.4-7.4 37.6-6.33 38.8-5.25 40.23-4.35 41.65-3.45 43.35-2.65 45.05-1.85 47.15-1L47.15-1 43.45 3.95Q39.25 1.8 36.1-0.73 32.95-3.25 30.5-6.8L30.5-6.8 29.7-6.5Q30.35-4.1 30.35-1.35L30.35-1.35Q30.35 0.55 30.05 1.8 29.75 3.05 29.03 3.88 28.3 4.7 27.05 5.13 25.8 5.55 23.9 5.7L23.9 5.7 20.15 6.05 18.5 0.95 21.5 0.65Q23.3 0.45 23.98-0.08 24.65-0.6 24.6-2.2L24.6-2.2Q24.6-2.6 24.58-2.95 24.55-3.3 24.5-3.7L24.5-3.7Q22.7-2.55 20.48-1.35 18.25-0.15 15.7 1.03 13.15 2.2 10.35 3.3 7.55 4.4 4.65 5.35L4.65 5.35 2.5 1.05Q8.85-0.55 14.25-2.88 19.65-5.2 23.5-7.65L23.5-7.65Q23.4-7.9 23.33-8.08 23.25-8.25 23.15-8.5L23.15-8.5Q21.3-7.5 19.18-6.5 17.05-5.5 14.8-4.55 12.55-3.6 10.28-2.8 8-2 5.85-1.4L5.85-1.4 4.3-5.45Q6.4-6 8.63-6.73 10.85-7.45 13.03-8.28 15.2-9.1 17.25-9.98 19.3-10.85 21.1-11.75L21.1-11.75 20.65-12.35Q17.15-10.9 13.35-9.7 9.55-8.5 6-7.8L6-7.8 4.5-12.2Q7.65-12.7 10.65-13.4 13.65-14.1 16.35-15L16.35-15 4.65-15 4.65-19.1 44.65-19.1 44.65-15 40.3-15 42.25-12Q40.8-11.2 39.03-10.38 37.25-9.55 35.3-8.75ZM26.6-15L25.35-14.4Q26.1-13.5 26.7-12.63 27.3-11.75 27.85-10.9L27.85-10.9Q30.15-11.85 32.63-12.9 35.1-13.95 37.2-15L37.2-15 26.6-15ZM88.85-5.6L88.85-5.6Q90.45-4.15 92.35-2.8 94.25-1.45 96.65 0L96.65 0 93.2 4.95Q90.8 3.3 88.95 1.78 87.1 0.25 85.55-1.35L85.55-1.35Q82.95 1.65 79.05 4.6L79.05 4.6 77.05 2.3 77.05 4.7 71.7 4.7 71.7-38.35 93.05-38.35Q93.05-37.95 93-37.08 92.95-36.2 92.93-35.1 92.9-34 92.85-32.88 92.8-31.75 92.75-30.8L92.75-30.8Q92.65-28.9 92.28-27.6 91.9-26.3 91.2-25.5 90.5-24.7 89.43-24.3 88.35-23.9 86.85-23.75L86.85-23.75 83.65-23.45 81.75-28.65 84.6-28.9Q86.15-29.05 86.58-29.85 87-30.65 87-32.55L87-32.55 77.05-32.55 77.05-22.45 93.75-22.45 93.75-17.15Q93-14.2 91.85-11.33 90.7-8.45 88.85-5.6ZM54.75-19.2L54.75-38.3 70.25-38.3 70.25-2Q70.25-0.1 70.03 1.13 69.8 2.35 69.23 3.1 68.65 3.85 67.7 4.2 66.75 4.55 65.35 4.7L65.35 4.7 62.55 5 60.9-0.35 63-0.65Q63.55-0.7 63.9-0.83 64.25-0.95 64.48-1.25 64.7-1.55 64.78-2.13 64.85-2.7 64.85-3.7L64.85-3.7 64.85-9.9 60-9.9Q59.6-6.1 58.7-2.27 57.8 1.55 55.9 5.4L55.9 5.4 50.6 2.7Q51.7 0.8 52.5-1 53.3-2.8 53.8-5.2 54.3-7.6 54.53-10.93 54.75-14.25 54.75-19.2L54.75-19.2ZM64.85-32.55L60.25-32.55 60.25-26.65 64.85-26.65 64.85-32.55ZM60.25-15.3L64.85-15.3 64.85-21.25 60.25-21.25 60.25-15.3ZM77.05-17.15L77.05-1.3Q78.55-2.3 79.8-3.35 81.05-4.4 82.1-5.5L82.1-5.5Q80.7-7.5 79.6-9.73 78.5-11.95 77.5-14.65L77.5-14.65 81.95-16.85Q83.35-12.7 85.3-9.75L85.3-9.75Q86.45-11.6 87.22-13.45 88-15.3 88.55-17.15L88.55-17.15 77.05-17.15ZM144.3-29.65L125.2-29.65Q124.35-27.75 123.4-25.98 122.45-24.2 121.3-22.35L121.3-22.35 128.25-22.35 128.25-28.3 133.55-27.9 133.55-22.35 142.9-22.35 142.9-5.5Q142.9-3.9 142.73-2.83 142.55-1.75 142.05-1.07 141.55-0.4 140.63-0.05 139.7 0.3 138.15 0.45L138.15 0.45 136.2 0.65 134.4-4.85 135.95-5.05Q137.15-5.2 137.4-5.7 137.65-6.2 137.65-7.25L137.65-7.25 137.65-16.9 133.55-16.9 133.55 4.85 128.25 4.85 128.25-16.9 124.1-16.9 124.1 0.5 118.75 0.5 118.75-22.35 119.9-22.35 117.25-25.05 115.15-20.05 111.7-21.35 111.7-6.4Q112.7-7.15 113.8-8.1 114.9-9.05 115.8-9.75L115.8-9.75 117.45-3.6Q116.9-3.15 116.1-2.53 115.3-1.9 114.4-1.18 113.5-0.45 112.6 0.25 111.7 0.95 111 1.5L111 1.5Q110.1 2.2 109.38 2.83 108.65 3.45 107.95 4L107.95 4 104.7-1.05Q105.75-1.9 105.95-2.73 106.15-3.55 106.15-4.8L106.15-4.8 106.15-21.45Q105.5-20.2 104.83-18.98 104.15-17.75 103.45-16.55L103.45-16.55 99.45-21.05Q101.6-24.95 103.65-29.88 105.7-34.8 106.85-39.85L106.85-39.85 112.5-38.95Q112.25-37.7 111.93-36.5 111.6-35.3 111.25-34.1L111.25-34.1 118.7-34.1 118.7-29.05Q120.3-31.65 121.55-34.5 122.8-37.35 123.45-40.2L123.45-40.2 128.7-39.25Q128.4-38.2 128.08-37.23 127.75-36.25 127.45-35.3L127.45-35.3 144.3-35.3 144.3-29.65ZM111.5-23.7L113.45-28.4 109.25-28.4Q108.85-27.25 108.38-26.18 107.9-25.1 107.4-24L107.4-24 111.5-23.7Z" transform="translate(-2.5, 40.20000076293945)"></path></g> <!----> <!----> <!----> <!----> <!----> <!----> <!----></g></g> <g data-gra="path-slogan" fill-rule="" class="tp-slogan iconsvg-slogansvg" fill="#0ca" transform="translate(2.6500015258789062,52.250003814697266)"><rect width="0"></rect> <rect x="139.5" width="0"></rect> <g transform="translate(0,0)"><g transform="scale(1)"><path d="M9.14-8.58L9.14 0L8.02 0L8.02-5.06Q8.02-5.77 8.02-7.22L8.02-7.22L5.58 0L4.41 0L2.02-7.22L1.97-7.22Q1.97-6.70 2.02-5.67L2.02-5.67Q2.02-5.16 2.02-5.06L2.02-5.06L2.02 0L0.84 0L0.84-8.58L2.53-8.58L5.02-1.31L7.45-8.58L9.14-8.58ZM17.63-4.27L17.63-4.27Q17.44-7.64 14.63-7.83L14.63-7.83Q11.77-7.69 11.63-4.27L11.63-4.27Q11.77-0.94 14.63-0.80L14.63-0.80Q17.44-0.98 17.63-4.27ZM18.80-4.27L18.80-4.27Q18.52 0 14.63 0.14L14.63 0.14Q10.69 0 10.41-4.27L10.41-4.27Q10.64-8.72 14.63-8.81L14.63-8.81Q18.52-8.67 18.80-4.27ZM21.56-8.58L25.88-1.64L25.88-8.58L27-8.58L27 0L25.69 0L21.33-6.94L21.28-6.94L21.28 0L20.16 0L20.16-8.58L21.56-8.58ZM35.20-3.61L32.58-3.61L32.58-4.59L36.33-4.59L36.33 0L35.58 0L35.30-1.08Q34.31 0.09 32.48 0.14L32.48 0.14Q30.75 0.14 29.81-0.75L29.81-0.75Q28.41-2.06 28.45-4.36L28.45-4.36Q28.78-8.63 32.53-8.81L32.53-8.81Q35.72-8.63 36.19-6L36.19-6L35.06-6Q34.59-7.78 32.48-7.83L32.48-7.83Q29.81-7.64 29.67-4.31L29.67-4.31Q29.67-0.75 32.53-0.75L32.53-0.75Q33.56-0.75 34.31-1.31L34.31-1.31Q35.25-2.06 35.20-3.61L35.20-3.61ZM44.91-4.27L44.91-4.27Q44.72-7.64 41.91-7.83L41.91-7.83Q39.05-7.69 38.91-4.27L38.91-4.27Q39.05-0.94 41.91-0.80L41.91-0.80Q44.72-0.98 44.91-4.27ZM46.08-4.27L46.08-4.27Q45.80 0 41.91 0.14L41.91 0.14Q37.97 0 37.69-4.27L37.69-4.27Q37.92-8.72 41.91-8.81L41.91-8.81Q45.80-8.67 46.08-4.27ZM47.44-8.58L48.61-8.58L48.61-1.03L52.97-1.03L52.97 0L47.44 0L47.44-8.58ZM54.28-8.58L55.45-8.58L55.45 0L54.28 0L54.28-8.58ZM63.09 0L62.25-2.48L58.78-2.48L57.89 0L56.72 0L59.95-8.58L61.27-8.58L64.36 0L63.09 0ZM60.52-7.31L59.16-3.52L61.83-3.52L60.56-7.31L60.52-7.31ZM66.80-8.58L71.11-1.64L71.11-8.58L72.23-8.58L72.23 0L70.92 0L66.56-6.94L66.52-6.94L66.52 0L65.39 0L65.39-8.58L66.80-8.58ZM84.52-6.05L84.52-6.05L83.39-6.05Q82.97-7.78 81-7.83L81-7.83Q78.28-7.69 78.19-4.36L78.19-4.36Q78.19-0.80 81.05-0.80L81.05-0.80Q83.02-0.84 83.48-3.19L83.48-3.19L84.61-3.19Q84.09 0.05 80.81 0.14L80.81 0.14Q77.06 0 76.97-4.31L76.97-4.31Q77.16-8.63 81-8.81L81-8.81Q84.05-8.72 84.52-6.05ZM85.97-8.58L87.14-8.58L87.14-1.03L91.50-1.03L91.50 0L85.97 0L85.97-8.58ZM99.42-4.27L99.42-4.27Q99.23-7.64 96.42-7.83L96.42-7.83Q93.56-7.69 93.42-4.27L93.42-4.27Q93.56-0.94 96.42-0.80L96.42-0.80Q99.23-0.98 99.42-4.27ZM100.59-4.27L100.59-4.27Q100.31 0 96.42 0.14L96.42 0.14Q92.48 0 92.20-4.27L92.20-4.27Q92.44-8.72 96.42-8.81L96.42-8.81Q100.31-8.67 100.59-4.27ZM104.16-7.59L101.25-7.59L101.25-8.58L108.19-8.58L108.19-7.59L105.28-7.59L105.28 0L104.16 0L104.16-7.59ZM110.39-5.06L114.89-5.06L114.89-8.58L116.06-8.58L116.06 0L114.89 0L114.89-3.98L110.39-3.98L110.39 0L109.22 0L109.22-8.58L110.39-8.58L110.39-5.06ZM118.03-8.58L119.20-8.58L119.20 0L118.03 0L118.03-8.58ZM122.58-8.58L126.89-1.64L126.89-8.58L128.02-8.58L128.02 0L126.70 0L122.34-6.94L122.30-6.94L122.30 0L121.17 0L121.17-8.58L122.58-8.58ZM136.22-3.61L133.59-3.61L133.59-4.59L137.34-4.59L137.34 0L136.59 0L136.31-1.08Q135.33 0.09 133.50 0.14L133.50 0.14Q131.77 0.14 130.83-0.75L130.83-0.75Q129.42-2.06 129.47-4.36L129.47-4.36Q129.80-8.63 133.55-8.81L133.55-8.81Q136.73-8.63 137.20-6L137.20-6L136.08-6Q135.61-7.78 133.50-7.83L133.50-7.83Q130.83-7.64 130.69-4.31L130.69-4.31Q130.69-0.75 133.55-0.75L133.55-0.75Q134.58-0.75 135.33-1.31L135.33-1.31Q136.27-2.06 136.22-3.61L136.22-3.61Z" transform="translate(-0.84375, 8.8125)"></path></g></g></g></g></g><defs v-gra="od"></defs></svg>